<?xml version="1.0" encoding="UTF-8"?>
<svg xmlns="http://www.w3.org/2000/svg" viewBox="0 0 1024 1024" role="img" aria-labelledby="title desc">
  <title id="title">Cover Skill logo</title>
  <desc id="desc">Four rounded frame segments converge around a transparent sixteen-by-nine cover area. One coral segment indicates the selected concept.</desc>
  <defs>
    <path id="frame" fill-rule="evenodd" d="
      M296 112H728A184 184 0 0 1 912 296V728A184 184 0 0 1 728 912H296A184 184 0 0 1 112 728V296A184 184 0 0 1 296 112Z
      M356 385H668A70 70 0 0 1 738 455V569A70 70 0 0 1 668 639H356A70 70 0 0 1 286 569V455A70 70 0 0 1 356 385Z
    "/>
    <clipPath id="top-segment">
      <path d="M0 0H1024L724 385H300Z"/>
    </clipPath>
    <clipPath id="right-segment">
      <path d="M1024 0V1024L738 625V399Z"/>
    </clipPath>
    <clipPath id="bottom-segment">
      <path d="M1024 1024H0L300 639H724Z"/>
    </clipPath>
    <clipPath id="left-segment">
      <path d="M0 1024V0L286 399V625Z"/>
    </clipPath>
  </defs>
  <use href="#frame" fill="#5964F2" clip-path="url(#top-segment)"/>
  <use href="#frame" fill="#5964F2" clip-path="url(#right-segment)"/>
  <use href="#frame" fill="#FF5A3D" clip-path="url(#bottom-segment)"/>
  <use href="#frame" fill="#5964F2" clip-path="url(#left-segment)"/>
</svg>
